<svg width="14" height="14" viewBox="0 0 14 14" fill="none" xmlns="http://www.w3.org/2000/svg">
<path fill-rule="evenodd" clip-rule="evenodd" d="M8.23164 8.41385C6.79972 9.84578 4.47811 9.84578 3.04619 8.41385C1.61427 6.98193 1.61427 4.66033 3.04619 3.2284C4.47811 1.79648 6.79972 1.79648 8.23164 3.2284C9.66356 4.66033 9.66356 6.98193 8.23164 8.41385ZM8.67202 9.79681C6.7118 11.2962 3.89621 11.1495 2.10338 9.35666C0.150761 7.40404 0.150761 4.23822 2.10338 2.28559C4.056 0.332973 7.22183 0.332973 9.17445 2.28559C10.9672 4.07834 11.114 6.89376 9.6148 8.85397L13.1815 12.4207L12.2387 13.3635L8.67202 9.79681Z" fill="#CED2E4"/>
</svg>
